<svg width="433" height="552" viewBox="0 0 433 552" fill="none" xmlns="http://www.w3.org/2000/svg">
<path d="M389.736 -42.1589L589.383 129.843C590.191 130.54 590.638 131.567 590.596 132.633L580.226 393.879C580.184 394.952 579.651 395.946 578.781 396.575L366.231 550.401C365.373 551.022 364.279 551.221 363.258 550.942L108.531 481.472C107.509 481.193 106.668 480.467 106.244 479.496L1.21899 239.059C0.789148 238.075 0.834815 236.948 1.34286 236.002L125.041 5.66479C125.546 4.72455 126.452 4.06607 127.502 3.87642L386.83 -42.9515C387.868 -43.1391 388.936 -42.8478 389.736 -42.1589Z" fill="#FFC72C" stroke="white"/>
</svg>
